<?xml version="1.0" encoding="UTF-8"?>
<svg version="1.1" xmlns="http://www.w3.org/2000/svg" width="225" height="225">
<path d="M0 0 C74.25 0 148.5 0 225 0 C225 74.25 225 148.5 225 225 C150.75 225 76.5 225 0 225 C0 150.75 0 76.5 0 0 Z " fill="#FDFDFD" transform="translate(0,0)"/>
<path d="M0 0 C0.33 32.34 0.66 64.68 1 98 C13.85205215 88.96929652 13.85205215 88.96929652 26.5625 79.75 C27.20123047 79.27949219 27.83996094 78.80898437 28.49804688 78.32421875 C29.99981141 77.21765541 31.50010336 76.10909387 33 75 C36.75668214 76.69096398 39.99211552 79.03126005 43.3125 81.4375 C43.83650391 81.81326172 44.36050781 82.18902344 44.90039062 82.57617188 C46.12452184 83.45693219 47.3284364 84.36606824 48.51782227 85.29321289 C50.60493862 86.72834916 52.52502699 87.75659168 54.79272461 88.84545898 C59.30014868 91.22724224 63.19077274 93.64741933 66 98 C68.49226229 106.74101586 67.40591834 116.22509576 66.9375 125.1875 C66.86217995 127.69055544 66.79375257 130.19382835 66.73242188 132.69726562 C66.56789568 138.80295547 66.31767177 144.90046185 66 151 C64.10779805 150.85777752 62.21593366 150.71106026 60.32421875 150.5625 C59.27065186 150.48128906 58.21708496 150.40007812 57.1315918 150.31640625 C46.21325124 149.21325124 46.21325124 149.21325124 44 147 C43.91134792 144.1156618 43.88478704 141.25537842 43.90234375 138.37109375 C43.9037587 137.50686295 43.90517365 136.64263214 43.90663147 135.75221252 C43.91224761 132.98060708 43.92480281 130.2090812 43.9375 127.4375 C43.94251292 125.5631522 43.94707619 123.68880315 43.95117188 121.81445312 C43.96137319 117.20957979 43.98094533 112.6048794 44 108 C37.73 108 31.46 108 25 108 C25 119.22 25 130.44 25 142 C22.504375 141.443125 20.00875 140.88625 17.4375 140.3125 C8.98393238 138.43030999 0.52253449 136.58501977 -7.94165039 134.7512207 C-9.31824829 134.45284302 -9.31824829 134.45284302 -10.72265625 134.1484375 C-11.52453369 133.97489746 -12.32641113 133.80135742 -13.15258789 133.62255859 C-15.6622273 133.07385067 -18.17029518 132.51871953 -20.67796326 131.96109009 C-21.48758231 131.78108271 -22.29720137 131.60107533 -23.13135433 131.41561317 C-23.7480074 131.27846083 -24.36466047 131.14130848 -25 131 C-25.5603688 117.46558993 -25.98458901 103.93400862 -26.24349213 90.39028931 C-26.36788043 84.09793694 -26.53595277 77.81360973 -26.81054688 71.52587891 C-28.75854864 25.77215453 -28.75854864 25.77215453 -17.99539948 13.37503052 C-5.18776523 0 -5.18776523 0 0 0 Z " fill="#030303" transform="translate(114,22)"/>
<path d="M0 0 C0.33 0 0.66 0 1 0 C1 26.4 1 52.8 1 80 C10.57 81.65 20.14 83.3 30 85 C41.77437453 87.58068483 53.43523461 90.20120707 65 93.5625 C85.52567742 99.42562613 105.67622374 101.87148279 127 102 C111.58363737 112.27757509 84.13920701 104.92243295 67.61669922 101.74414062 C61.5478219 100.49546113 55.56357229 98.96948365 49.57543945 97.38354492 C40.126417 94.92218058 30.58325488 93.03853495 21 91.1875 C20.21292664 91.03452454 19.42585327 90.88154907 18.6149292 90.72393799 C16.3481896 90.28466116 14.08060613 89.85012975 11.8125 89.41796875 C10.80759018 89.22461693 10.80759018 89.22461693 9.78237915 89.02735901 C0.17669654 87.22245141 -9.23598824 86.72411269 -19 86.6875 C-20.0353035 86.68307388 -20.0353035 86.68307388 -21.09152222 86.67855835 C-32.75137992 86.66720371 -43.7132787 87.22202174 -54.27734375 92.69921875 C-55.62505859 93.34310547 -55.62505859 93.34310547 -57 94 C-57.66 93.67 -58.32 93.34 -59 93 C-48.66158511 85.66779086 -39.48475294 82.34422103 -27 80 C-29.64 80 -32.28 80 -35 80 C-35.27462338 75.48388572 -35.47266738 70.97274242 -35.60424805 66.45019531 C-35.65913917 64.91710708 -35.73389541 63.38458335 -35.82983398 61.85351562 C-36.64588844 48.48244153 -36.64588844 48.48244153 -32.57275391 43.69824219 C-25.80423262 37 -25.80423262 37 -22 37 C-22 50.86 -22 64.72 -22 79 C-19.03 78.505 -19.03 78.505 -16 78 C-16.02664734 77.23515793 -16.05329468 76.47031586 -16.08074951 75.68229675 C-16.32242021 68.43099919 -16.5044801 61.18168438 -16.62174606 53.92739391 C-16.68406913 50.19861152 -16.76838388 46.47318705 -16.90527344 42.74633789 C-17.84069362 16.61179671 -17.84069362 16.61179671 -13.41601562 10.67431641 C-10.64019585 7.82457387 -7.4703989 5.9333217 -4 4 C-2.64016422 2.69370669 -1.29740067 1.36832272 0 0 Z " fill="#121212" transform="translate(82,74)"/>
<path d="M0 0 C1.13574463 0.17015625 2.27148926 0.3403125 3.44165039 0.515625 C17.39151732 2.72152048 31.12240206 5.95754324 44.88235474 9.1086731 C77.69623022 16.6125797 114.66049477 23.39859511 145.5 5.5625 C146.1496875 5.14097656 146.799375 4.71945313 147.46875 4.28515625 C147.9740625 4.02605469 148.479375 3.76695312 149 3.5 C149.99 3.995 149.99 3.995 151 4.5 C135.64635253 21.72604351 115.39825099 30.92005196 92.546875 32.78125 C68.84291823 33.44275577 45.3346969 25.43151171 23.21517944 17.8449707 C10.66708987 13.55477825 -2.01990037 10.20858076 -15 7.5 C-15.99902344 7.28988281 -16.99804688 7.07976562 -18.02734375 6.86328125 C-30.65111806 5.32055982 -43.84166927 5.64603856 -56 9.5 C-50.29936528 3.00656178 -40.67753096 1.17532819 -32.5 -0.3125 C-31.83726074 -0.43625 -31.17452148 -0.56 -30.49169922 -0.6875 C-20.28188252 -2.3632604 -10.16804141 -1.55168019 0 0 Z " fill="#040404" transform="translate(66,171.5)"/>
<path d="M0 0 C7.87770898 6.75232198 7.87770898 6.75232198 11.11328125 9.796875 C11.80357422 10.44527344 12.49386719 11.09367187 13.20507812 11.76171875 C13.90052734 12.41785156 14.59597656 13.07398438 15.3125 13.75 C16.02728516 14.42160156 16.74207031 15.09320313 17.47851562 15.78515625 C24.98128306 22.84242477 24.98128306 22.84242477 25.24050903 25.02481079 C25.2338472 26.27057388 25.2338472 26.27057388 25.22705078 27.54150391 C25.22689972 28.48232819 25.22674866 29.42315247 25.22659302 30.39248657 C25.21627045 31.41023163 25.20594788 32.42797668 25.1953125 33.4765625 C25.1924826 34.51694672 25.18965271 35.55733093 25.18673706 36.62924194 C25.17551704 39.96127694 25.15040915 43.29304586 25.125 46.625 C25.11497256 48.88020446 25.1058463 51.13541312 25.09765625 53.390625 C25.07557174 58.92718629 25.04102946 64.46354799 25 70 C22.03 71.65 19.06 73.3 16 75 C15.99613281 73.44539063 15.99613281 73.44539063 15.9921875 71.859375 C15.95465779 70.48954048 15.91551016 69.11974962 15.875 67.75 C15.87757813 67.06808594 15.88015625 66.38617188 15.8828125 65.68359375 C15.85220409 63.37360545 15.85220409 63.37360545 15 60 C12.10052411 57.46755784 12.10052411 57.46755784 9 56 C9.03316682 58.56590557 9.10046519 61.12332066 9.1875 63.6875 C9.19330078 64.40873047 9.19910156 65.12996094 9.20507812 65.87304688 C9.38052804 70.14232808 9.67432914 71.61448151 12.55078125 75.01953125 C13.35902344 75.67308594 14.16726562 76.32664062 15 77 C12.6895094 78.66951579 10.37675417 80.33571614 8.0625 82 C7.40314453 82.47695312 6.74378906 82.95390625 6.06445312 83.4453125 C1.11328125 87 1.11328125 87 0 87 C0 58.29 0 29.58 0 0 Z " fill="#030303" transform="translate(120,23)"/>
<path d="M0 0 C1.48307427 2.96614855 1.08148095 5.95676228 1.02172852 9.20361328 C1.01212097 9.9451767 1.00251343 10.68674011 0.99261475 11.45077515 C0.95957468 13.90738268 0.91926154 16.36381513 0.87890625 18.8203125 C0.85461002 20.5213865 0.83076621 22.22246702 0.80735779 23.92355347 C0.74446737 28.40512505 0.6754148 32.88658153 0.60510254 37.36804199 C0.53446382 41.93931833 0.46962017 46.51067641 0.40429688 51.08203125 C0.27522062 60.05477973 0.13910272 69.02740135 0 78 C-5.28 78 -10.56 78 -16 78 C-16.2724479 69.97571078 -16.49197805 61.95508439 -16.62174606 53.92739391 C-16.68406913 50.19861152 -16.76838388 46.47318705 -16.90527344 42.74633789 C-17.84069362 16.61179671 -17.84069362 16.61179671 -13.41601562 10.67431641 C-10.64019585 7.82457387 -7.4703989 5.9333217 -4 4 C-1.68859776 1.89653286 -1.68859776 1.89653286 0 0 Z " fill="#040404" transform="translate(82,74)"/>
<path d="M0 0 C0 13.53 0 27.06 0 41 C-4.29 41.66 -8.58 42.32 -13 43 C-13.27462338 38.48388572 -13.47266738 33.97274242 -13.60424805 29.45019531 C-13.65913917 27.91710708 -13.73389541 26.38458335 -13.82983398 24.85351562 C-14.64588844 11.48244153 -14.64588844 11.48244153 -10.57275391 6.69824219 C-3.80423262 0 -3.80423262 0 0 0 Z " fill="#000000" transform="translate(60,111)"/>
<path d="M0 0 C5.70176623 3.32859867 11.12891998 6.53624705 15 12 C15.84721313 17.16029813 15.61719302 21.7950055 15 27 C13.34657587 26.10439526 11.699948 25.19398703 10.08984375 24.22265625 C8.01449387 22.95760535 8.01449387 22.95760535 5.75390625 21.99609375 C3.06483004 20.543705 1.69995876 19.57372891 0 17 C-1.00703927 11.40266954 -0.45157848 5.6321872 0 0 Z " fill="#040404" transform="translate(151,76)"/>
<path d="M0 0 C0.33 0 0.66 0 1 0 C1 35.31 1 70.62 1 107 C5.95 107.66 10.9 108.32 16 109 C20.52738724 109.94235209 25.00792918 110.91976392 29.5 112 C30.61375 112.26039063 31.7275 112.52078125 32.875 112.7890625 C38.29183054 114.06588684 43.66751509 115.40638382 49 117 C48.67 117.66 48.34 118.32 48 119 C38.25584624 117.29796441 28.58851751 115.26803214 18.9140625 113.2109375 C10.97315824 111.54536648 3.03266964 110.14487851 -5 109 C-5 108.67 -5 108.34 -5 108 C-3.35 108 -1.7 108 0 108 C0 72.36 0 36.72 0 0 Z " fill="#B8B8B8" transform="translate(88,46)"/>
<path d="M0 0 C2.49361571 1.20381448 4.68143083 2.45428722 7 4 C7.38394667 6.77262255 7.60342248 9.34323528 7.6875 12.125 C7.72166016 12.87910156 7.75582031 13.63320312 7.79101562 14.41015625 C7.87354278 16.27291201 7.93844711 18.13643326 8 20 C5.45226493 19.65571148 3.43130475 19.2516724 1.19921875 17.94921875 C-0.74673461 14.78625221 -0.30981293 11.40348208 -0.1875 7.8125 C-0.17396484 7.06291016 -0.16042969 6.31332031 -0.14648438 5.54101562 C-0.11118539 3.69370233 -0.05737917 1.84675934 0 0 Z " fill="#EAEAEA" transform="translate(129,79)"/>
<path d="M0 0 C0.13517903 2.75164432 0.23415251 5.49664521 0.3125 8.25 C0.35439453 9.02730469 0.39628906 9.80460937 0.43945312 10.60546875 C0.56328662 16.40087622 0.56328662 16.40087622 -2.39453125 19.546875 C-5 21 -5 21 -7 21 C-7.16276553 18.43493576 -7.28113984 15.88024578 -7.375 13.3125 C-7.42527344 12.59126953 -7.47554688 11.87003906 -7.52734375 11.12695312 C-7.67250332 5.82862899 -7.67250332 5.82862899 -5.67285156 3.36474609 C-1.70162037 0 -1.70162037 0 0 0 Z " fill="#ECECEC" transform="translate(105,78)"/>
<path d="M0 0 C0 5.28 0 10.56 0 16 C-2.31 17.32 -4.62 18.64 -7 20 C-7.13526616 17.4149133 -7.23417653 14.83691248 -7.3125 12.25 C-7.35439453 11.52039063 -7.39628906 10.79078125 -7.43945312 10.0390625 C-7.52961736 6.0718363 -7.38859907 4.40825089 -4.60546875 1.484375 C-2 0 -2 0 0 0 Z " fill="#EEEEEE" transform="translate(105,125)"/>
<path d="M0 0 C0.16276553 2.56506424 0.28113984 5.11975422 0.375 7.6875 C0.42527344 8.40873047 0.47554688 9.12996094 0.52734375 9.87304688 C0.67250332 15.17137101 0.67250332 15.17137101 -1.32714844 17.63525391 C-5.29837963 21 -5.29837963 21 -7 21 C-7.16276553 18.43493576 -7.28113984 15.88024578 -7.375 13.3125 C-7.42527344 12.59126953 -7.47554688 11.87003906 -7.52734375 11.12695312 C-7.67250332 5.82862899 -7.67250332 5.82862899 -5.67285156 3.36474609 C-1.70162037 0 -1.70162037 0 0 0 Z " fill="#EEEEEE" transform="translate(105,55)"/>
<path d="M0 0 C2.49361571 1.20381448 4.68143083 2.45428722 7 4 C7.22107787 6.7885289 7.28107535 9.34653181 7.1875 12.125 C7.17396484 12.87910156 7.16042969 13.63320312 7.14648438 14.41015625 C7.11109985 16.27374127 7.05729167 18.13695978 7 20 C4.50638429 18.79618552 2.31856917 17.54571278 0 16 C-0.22107787 13.2114711 -0.28107535 10.65346819 -0.1875 7.875 C-0.17396484 7.12089844 -0.16042969 6.36679687 -0.14648438 5.58984375 C-0.11109985 3.72625873 -0.05729167 1.86304022 0 0 Z " fill="#E9E9E9" transform="translate(129,56)"/>
<path d="M0 0 C0 5.28 0 10.56 0 16 C-2.31 17.32 -4.62 18.64 -7 20 C-7.13526616 17.4149133 -7.23417653 14.83691248 -7.3125 12.25 C-7.35439453 11.52039063 -7.39628906 10.79078125 -7.43945312 10.0390625 C-7.52961736 6.0718363 -7.38859907 4.40825089 -4.60546875 1.484375 C-2 0 -2 0 0 0 Z " fill="#EDEDED" transform="translate(105,102)"/>
<path d="M0 0 C10.77760958 0.23663414 20.70500606 3.08164921 31 6 C30.67 6.66 30.34 7.32 30 8 C23.08928358 6.84313998 16.2261873 5.4645211 9.375 4 C8.56885254 3.8340332 7.76270508 3.66806641 6.93212891 3.49707031 C4.93941359 3.06333412 2.96683118 2.53908863 1 2 C0.67 1.34 0.34 0.68 0 0 Z " fill="#CECECE" transform="translate(106,157)"/>
<path d="M0 0 C0.69867188 0.09152344 1.39734375 0.18304688 2.1171875 0.27734375 C5.77467458 0.767309 9.39210432 1.34986616 13 2.125 C9.14178723 4.69714185 6.59384657 3.97438173 2.25 3.3125 C1.5590625 3.21646484 0.868125 3.12042969 0.15625 3.02148438 C-1.89762874 2.73386414 -3.94871678 2.43052077 -6 2.125 C-7.33840988 1.9326744 -8.67694293 1.74120305 -10.015625 1.55078125 C-11.00046875 1.41027344 -11.9853125 1.26976562 -13 1.125 C-13 0.795 -13 0.465 -13 0.125 C-8.53008358 -1.11470338 -4.51695387 -0.64170747 0 0 Z " fill="#C0C0C0" transform="translate(96,153.875)"/>
</svg>
